<?xml version="1.0" encoding="UTF-8"?><svg id="Layer_1" xmlns="http://www.w3.org/2000/svg" viewBox="0 0 95.72 95.72"><defs><style>.cls-1{fill:#23393e;}.cls-2{fill:#e0ebc6;}</style></defs><circle class="cls-2" cx="47.86" cy="47.86" r="47.86"/><path class="cls-1" d="m29.05,19.18h19.63c11.91,0,21.16,3.27,21.16,14.23,0,5.15-2.88,10.62-7.56,12.38v.35c5.86,1.52,10.38,5.84,10.38,13.5,0,11.67-9.87,16.9-22.35,16.9h-21.27V19.18Zm19.03,22.98c6.29,0,9.08-2.66,9.08-6.83,0-4.42-2.94-6.14-8.98-6.14h-6.16v12.97h6.07Zm1.18,24.38c7.07,0,10.72-2.52,10.72-7.73s-3.59-7.08-10.72-7.08h-7.25v14.81h7.25Z"/></svg>